<svg version="1" xmlns="http://www.w3.org/2000/svg" width="346.667" height="346.667" viewBox="0 0 260.000000 260.000000"><path d="M124.5 27.7c-9.9 32.4-18.5 47.4-43.3 75.2-17.7 19.9-25.4 32.6-29.4 48.5-3.8 14.8-1.3 34.7 6 49.1 8.9 17.7 26.5 33 46.3 40.2 7 2.6 8.3 2.7 25.9 2.7 17.6 0 18.8-.1 25.9-2.7 14.5-5.3 27.8-14.8 38.1-27.3 13.3-16.1 19.3-42.1 14.2-61.9-4-16-12-29.2-29.2-48.4-23-25.7-34.4-44.7-41.9-70.1-4.8-16.2-5.2-17-7.1-17-1.5 0-2.6 2.2-5.5 11.7zm29.5 76.7c.5 1.3.5 3.7.1 5.3l-.7 2.8h-46.7l-.9-2.6c-.5-1.6-.5-3.7.1-5.2l1.1-2.7h46l1 2.4zm-5.9 26.7c10.8 5.1 16.9 14.1 19 28.3 3.1 20.7-5.4 39.9-20.6 46.8-6.8 3-22.7 3.7-30.8 1.4-10.4-3-18.1-11-21.2-21.8-7.1-25.1 2.5-49.5 21.9-55.8 9-2.9 24-2.4 31.7 1.1z"/></svg>